<svg xmlns="http://www.w3.org/2000/svg" viewBox="0 0 94.28 94.28" xml:space="preserve"><path d="M68.88 40.34C76.91 31.9 99.38 7.26 93.2 1.08A3.99 3.99 0 0 0 90.27 0C84.15 0 70.6 9.48 53.94 25.41L15.78 12.25a2.22 2.22 0 0 0-2.27.53L1.87 24.42a2.2 2.2 0 0 0 .59 3.53l33.48 16.36a336.1 336.1 0 0 0-17.68 21.37l-8.28-5.71a2.24 2.24 0 0 0-2.8.25L.64 66.75a2.2 2.2 0 0 0 0 3.1l9.09 9.1c-.97 2.14-1.66 4.5-.29 5.88.35.35 1 .77 2.07.77.98 0 2.23-.35 3.81-1.06l9.1 9.1a2.2 2.2 0 0 0 3.1 0l6.53-6.53a2.2 2.2 0 0 0 .25-2.8l-5.71-8.29a335.97 335.97 0 0 0 21.38-17.68l16.35 33.48a2.22 2.22 0 0 0 1.97 1.24c.58 0 1.15-.24 1.56-.65L81.5 80.77c.6-.59.8-1.48.53-2.27L68.87 40.34z"/></svg>