<svg xmlns="http://www.w3.org/2000/svg" viewBox="0 0 488 488" xml:space="preserve"><path d="m483.7 101.8-.3-.6a7.9 7.9 0 0 0-2.6-3.5c-.1-.1-.2-.3-.4-.3l-.9-.5-.5-.3-232-96a8 8 0 0 0-6 0L9 96.6c-.2 0-.4.2-.5.3l-1 .4-.3.4-.6.5a8 8 0 0 0-2 3l-.3.6c-.2.7-.3 1.5-.3 2.2v280a8 8 0 0 0 5 7.4l232 96h.3c.8.4 1.8.6 2.7.6 1 0 1.9-.2 2.7-.5l.4-.1 232-96a8 8 0 0 0 4.9-7.4V104c0-.7-.1-1.5-.3-2.2zM236 468 20 378.7V116l216 89.3V468zm8-276.7L33 104l211-87.3L455 104l-211 87.3zm224 187.4L252 468V205.3L468 116v262.7z"/></svg>