<svg xmlns="http://www.w3.org/2000/svg" viewBox="0 0 483.5 483.5" xml:space="preserve"><path d="M254.1 465.2h7.5c4.9-1.3 40.7-12.1 63.8-65.8-12.3-33.5-21.5-84.2-21-160.7.2-14.5 3.6-224.3-69.7-228.2H116l9.7 8c13.8 11.3 24 25.3 31.4 40.2 9 17.9 14 37 16.7 54.8 6.6 31 10.9 71.2 10.6 123.5-.4 14.5-3.8 224.3 69.6 228.2z"/><path d="M130.7 185.7c1.5-54 10.6-91.5 22-117.6a116.2 116.2 0 0 0-32-43.6c-7.1-6-12.6-10.6-17.4-14h-26C1.3 14.5 0 185.7 0 185.7l84-51.1 46.7 51zM352.9 297.8c-1.4 50.2-11 86-23.4 111.8-15.1 31.3-34.4 47.4-48.4 55.6-10.9 6.3-18.6 7.8-18.6 7.8h143.7c76-4 77.3-175.1 77.3-175.1l-68.3 59-62.3-59z"/></svg>