<svg xmlns="http://www.w3.org/2000/svg" viewBox="0 0 574.888 574.888" xml:space="preserve"><path d="M287.669 362.701c42.027.029 76.127-34.014 76.155-76.05.029-42.027-34.014-76.127-76.05-76.156-42.027-.029-76.127 34.014-76.156 76.05-.028 42.027 34.024 76.128 76.051 76.156zm52.804-77.035c3.663.736 6.513 3.271 8.205 6.465.258.459.401.946.612 1.434.286.708.507 1.426.679 2.172.555 2.236.803 4.59.373 7.008-3.3 18.361-16.429 34.129-34.951 38.346-6.369 1.455-12.709-1.482-15.559-7.229a14.053 14.053 0 0 1-2.467-4.715c-3.614-11.904-.812-26.354 8.979-34.701 9.849-8.388 21.411-11.324 34.129-8.78zm-111.977 1.779c0-34.464 26.45-62.51 58.943-62.51a9.56 9.56 0 0 1 9.562 9.562 9.56 9.56 0 0 1-9.562 9.562c-21.956 0-39.818 19.459-39.818 43.385 0 5.277-4.274 9.562-9.562 9.562s-9.563-4.284-9.563-9.561z"/><path d="M287.439 457.943c204.6 0 287.448-144.9 287.448-168.988 0-26.975-103.59-172.01-287.448-172.01C96.505 116.945 0 259.904 0 288.955c0 28.535 96.505 168.988 287.439 168.988zm-.66-301.773c72.503.048 131.227 58.867 131.179 131.36-.048 72.502-58.867 131.227-131.36 131.178-72.503-.047-131.226-58.867-131.178-131.359.047-72.494 58.866-131.226 131.359-131.179z"/></svg>