<svg xmlns="http://www.w3.org/2000/svg" viewBox="0 0 512 512" xml:space="preserve"><path d="M369.2 159.8c-91.4-55.6-48.5-134-46.7-137.3a15 15 0 0 0-13-22.5c-47 0-83.9 13.4-109.5 39.7-43.7 45-41.7 115.2-40.8 145.1l.1 8.3a349 349 0 0 0 6.8 60.9c2 11.7 3.7 21.7 4 29.6.4 8.5-1.2 10.5-1.2 10.5-.3.3-2.1 1.3-7 1.3-5.7 0-10-1.9-13.6-6-14.5-16.3-15.5-60.6-12.7-84.7a15 15 0 0 0-15-16.7c-38.9 0-68 63.7-68 120.6 0 26.8 5.4 53 16 78a206.9 206.9 0 0 0 43.5 64.6 201.3 201.3 0 0 0 287.7 1 202 202 0 0 0 59.6-143.6c0-69-54-126.7-90.2-148.8z"/></svg>