<svg xmlns="http://www.w3.org/2000/svg" viewBox="0 0 124.2 124.2" xml:space="preserve"><path d="M88.1 62.3c-3 6.2-1.7 6.9-4.9 13l-1 2.2-.8-7.8c-1-20.8-1.9-32-2.9-52.8-.2-5.7-2.6-8.3-7.1-8-4.2.3-6.1 3-5.9 8.5.5 11.4 1 13 1.5 24.4.2 4.3-2.6 3.5-2.6 0-.7-15.5-1.4-18.9-2-34.3-.2-4.2-2-7-6.3-7.5-4.1-.4-7 3-6.7 8.3.6 15 1.3 17.9 2 32.8.1 4.4-2.6 3.7-2.6.4-.5-11.8-.9-14-1.7-25.9-.2-2.4-1.7-5.5-3.5-6.8-4.6-3-9.6.9-9.4 7.2.5 13.2 1.2 16.8 1.7 30 .3 3.4-2.3 4.3-2.5.4-.4-8.4-.7-7.2-1.1-15.6-.3-3.9-2.4-6-6.3-6.2-3.9-.1-6 2.1-6.7 5.8-.2 1.5-.1 3 0 4.6.9 20 1.2 30.3 2.9 50.2.7 8.7.9 13.7 7.5 24.9-.2 3.2-.4 10.2-.3 14h48.4c-.5-3.8-.5-10-.8-13.3v-.2c1.8-2.7 4.4-5 7.4-7.3 3-2.2 5.5-5.8 7-9.3a264 264 0 0 0 13.4-36.1c1.9-6.1-9.3-12.8-16.7 4.4z"/></svg>