<svg xmlns="http://www.w3.org/2000/svg" viewBox="0 0 556.7 556.7" xml:space="preserve"><path d="M431.4 556.7a17.7 17.7 0 0 0 16.4-24.4l-76.9-186.6c2.3-26.9 2.8-56 1.3-86.8-7.1-151-71.4-247.8-74-252-3.4-4.8-8.9-6.9-14.8-6.9h-3.3c-6 0-11.4 2-14.7 7-2.7 4-67 101.6-74 252.6-1.3 25.4-1.2 49.6.2 72.3L109 532.4a17.6 17.6 0 0 0 27.8 20l91.5-79.1 3 3.8-9.4 23.3c-2.5 6.1-1.3 13.5 3 18.5 2.2 2.6 23 26.2 55.2 26.2h3.3c32.3 0 53-23.6 55.3-26.2a18 18 0 0 0 3-18.1l-9.3-24 87.5 75.6c3.3 2.9 7.4 4.3 11.5 4.3z"/></svg>