<svg xmlns="http://www.w3.org/2000/svg" viewBox="0 0 555.12 555.12" xml:space="preserve"><path d="M277.56 103.27c-96.1 0-174.29 78.19-174.29 174.29s78.19 174.28 174.29 174.28 174.28-78.18 174.28-174.28-78.18-174.29-174.28-174.29zM277.56 91.22c5.91 0 10.7-4.8 10.7-10.71V10.7a10.71 10.71 0 1 0-21.41 0v69.8c0 5.91 4.8 10.7 10.7 10.7zM544.4 266.85h-69.8a10.71 10.71 0 1 0 0 21.42h69.8a10.71 10.71 0 0 0 0-21.42zM277.56 463.9c-5.92 0-10.71 4.8-10.71 10.7v69.8a10.71 10.71 0 1 0 21.42 0v-69.8c0-5.9-4.8-10.7-10.71-10.7zM91.22 277.56c0-5.92-4.8-10.71-10.71-10.71H10.7a10.71 10.71 0 1 0 0 21.42h69.8a10.7 10.7 0 0 0 10.7-10.71z"/><path d="M416.9 148.93c2.73 0 5.47-1.04 7.56-3.13l49.36-49.36a10.7 10.7 0 1 0-15.15-15.14l-49.35 49.35a10.7 10.7 0 0 0 7.57 18.28zM424.46 409.32a10.7 10.7 0 1 0-15.14 15.14l49.35 49.36a10.68 10.68 0 0 0 15.15 0 10.7 10.7 0 0 0 0-15.15l-49.36-49.35zM130.65 409.32 81.3 458.67a10.7 10.7 0 1 0 15.14 15.15l49.36-49.36a10.7 10.7 0 1 0-15.15-15.14zM130.65 145.8a10.68 10.68 0 0 0 15.15 0 10.7 10.7 0 0 0 0-15.15L96.44 81.3A10.71 10.71 0 0 0 81.3 96.44l49.35 49.35z"/></svg>