<svg xmlns="http://www.w3.org/2000/svg" width="69.366" height="17.727" viewBox="0 0 69.366 17.727">
    <g transform="translate(0 -187.6)">
        <path d="M353.036,221.2h-3.744a.732.732,0,0,0-.551.44L347.2,231.33a.292.292,0,0,0,.33.33h1.982a.292.292,0,0,0,.33-.33l.44-2.753a.5.5,0,0,1,.551-.44h1.211q3.8,0,4.294-3.633a2.886,2.886,0,0,0-.44-2.422,4.441,4.441,0,0,0-2.863-.881m.44,3.633c-.22,1.321-1.211,1.321-2.2,1.321h-.661l.44-2.532c0-.11.11-.22.33-.22h.22c.661,0,1.321,0,1.652.44.22.11.22.44.22.991"
              transform="translate(-299.414 -28.976)" fill="#139ad6"/>
        <g transform="translate(20.81 192.224)">
            <path d="M157.036,221.2h-3.744a.732.732,0,0,0-.551.44L151.2,231.33a.292.292,0,0,0,.33.33h1.762a.732.732,0,0,0,.551-.44l.44-2.643a.5.5,0,0,1,.551-.44h1.211q3.8,0,4.294-3.633a2.886,2.886,0,0,0-.44-2.422,4.232,4.232,0,0,0-2.863-.881m.44,3.633c-.22,1.321-1.211,1.321-2.2,1.321h-.551l.44-2.532c0-.11.11-.22.33-.22h.22c.661,0,1.321,0,1.652.44a1.179,1.179,0,0,1,.11.991"
                  transform="translate(-151.2 -221.2)" fill="#263b80"/>
            <path d="M222.446,245.42h-1.762c-.11,0-.33.11-.33.22l-.11.551-.11-.22a2.59,2.59,0,0,0-2.092-.771,4.231,4.231,0,0,0-4.074,3.633,3.282,3.282,0,0,0,.661,2.753,2.775,2.775,0,0,0,2.312.881,3.519,3.519,0,0,0,2.532-.991l-.11.551a.292.292,0,0,0,.33.33h1.652a.732.732,0,0,0,.551-.44l.991-6.166c-.11-.11-.33-.33-.44-.33m-2.532,3.523a2.13,2.13,0,0,1-2.092,1.762,1.761,1.761,0,0,1-1.211-.44,2.348,2.348,0,0,1-.33-1.321,1.964,1.964,0,0,1,3.193-1.321,1.922,1.922,0,0,1,.44,1.321"
                  transform="translate(-205.27 -241.897)" fill="#263b80"/>
        </g>
        <path d="M417.646,245.42h-1.762c-.11,0-.33.11-.33.22l-.11.551-.11-.22a2.59,2.59,0,0,0-2.092-.771,4.231,4.231,0,0,0-4.074,3.633,3.282,3.282,0,0,0,.661,2.753,2.775,2.775,0,0,0,2.312.881,3.519,3.519,0,0,0,2.532-.991l-.11.551a.292.292,0,0,0,.33.33h1.652a.732.732,0,0,0,.551-.44l.991-6.166c-.11-.11-.22-.33-.44-.33m-2.532,3.523a2.13,2.13,0,0,1-2.092,1.762,1.761,1.761,0,0,1-1.211-.44,2.348,2.348,0,0,1-.33-1.321,1.964,1.964,0,0,1,3.193-1.321,1.264,1.264,0,0,1,.44,1.321"
              transform="translate(-352.794 -49.672)" fill="#139ad6"/>
        <path d="M292.478,246.8h-1.872a.572.572,0,0,0-.44.22l-2.422,3.744-1.1-3.523a.509.509,0,0,0-.551-.33H284.33c-.22,0-.33.22-.33.44l1.982,5.836-1.872,2.643c-.11.22,0,.551.22.551h1.762a.572.572,0,0,0,.44-.22l6.056-8.7c.33-.33.11-.661-.11-.661"
              transform="translate(-244.913 -51.052)" fill="#263b80"/>
        <path d="M476.741,221.95l-1.541,9.909a.292.292,0,0,0,.33.33h1.541a.732.732,0,0,0,.551-.44l1.542-9.689a.292.292,0,0,0-.33-.33h-1.762c-.11-.11-.22,0-.33.22"
              transform="translate(-409.797 -29.395)" fill="#139ad6"/>
        <path d="M12.662,188.921c-.771-.881-2.2-1.321-4.184-1.321H2.973a.945.945,0,0,0-.771.661L0,202.684a.5.5,0,0,0,.44.551H3.854l.881-5.4v.22a.945.945,0,0,1,.771-.661H7.157c3.193,0,5.615-1.321,6.386-4.955v-.33h0a3.845,3.845,0,0,0-.881-3.193"
              fill="#263b80"/>
        <path d="M35.509,220.4h0v.33c-.771,3.744-3.193,4.955-6.386,4.955H27.472a.945.945,0,0,0-.771.661l-1.1,6.716a.4.4,0,0,0,.44.44H28.9a.617.617,0,0,0,.661-.551v-.11l.551-3.413v-.22a.617.617,0,0,1,.661-.551h.44c2.753,0,4.955-1.1,5.505-4.4a4.048,4.048,0,0,0-.551-3.3,1.128,1.128,0,0,0-.661-.551"
              transform="translate(-22.077 -28.286)" fill="#139ad6"/>
        <path d="M42.328,215.93c-.11,0-.22-.11-.33-.11a.4.4,0,0,1-.33-.11,5.817,5.817,0,0,0-1.431-.11H35.941a.4.4,0,0,0-.33.11.606.606,0,0,0-.33.551l-.881,5.725v.22a.945.945,0,0,1,.771-.661h1.652c3.193,0,5.615-1.321,6.386-4.955a.4.4,0,0,1,.11-.33c-.22-.11-.33-.22-.551-.22-.33-.11-.33-.11-.44-.11"
              transform="translate(-29.665 -24.146)" fill="#232c65"/>
    </g>
</svg>
