<svg xmlns="http://www.w3.org/2000/svg" width="38.979" height="11.818" viewBox="0 0 38.979 11.818">
    <g transform="translate(0 -175.6)">
        <path d="M184.8,191.537l1.98-11.137h3.094l-1.918,11.137Z"
              transform="translate(-170.508 -4.429)" fill="#3c58bf"/>
        <path d="M184.8,191.537l2.537-11.137h2.537l-1.918,11.137Z"
              transform="translate(-170.508 -4.429)" fill="#293688"/>
        <path d="M257.466,176.095a7.848,7.848,0,0,0-2.846-.495c-3.094,0-5.321,1.547-5.321,3.774,0,1.671,1.547,2.537,2.784,3.094s1.609.928,1.609,1.423c0,.742-.99,1.114-1.856,1.114a6.725,6.725,0,0,1-2.97-.619l-.433-.186L248,186.737a10.032,10.032,0,0,0,3.527.619c3.279,0,5.445-1.547,5.445-3.9,0-1.3-.8-2.289-2.661-3.094-1.114-.557-1.794-.866-1.794-1.423,0-.495.557-.99,1.794-.99a5.675,5.675,0,0,1,2.351.433l.309.124.495-2.413Z"
              transform="translate(-228.82)" fill="#3c58bf"/>
        <path d="M257.466,176.095a7.848,7.848,0,0,0-2.846-.495c-3.094,0-4.764,1.547-4.764,3.774a3.234,3.234,0,0,0,2.227,3.094c1.237.557,1.609.928,1.609,1.423,0,.742-.99,1.114-1.856,1.114a6.725,6.725,0,0,1-2.97-.619l-.433-.186L248,186.737a10.032,10.032,0,0,0,3.527.619c3.279,0,5.445-1.547,5.445-3.9,0-1.3-.8-2.289-2.661-3.094-1.114-.557-1.794-.866-1.794-1.423,0-.495.557-.99,1.794-.99a5.675,5.675,0,0,1,2.351.433l.309.124.495-2.413Z"
              transform="translate(-228.82)" fill="#293688"/>
        <path d="M364.649,180.4c-.742,0-1.3.062-1.609.8l-4.64,10.333h3.341l.619-1.856h3.96l.371,1.856h2.97l-2.6-11.137Zm-1.423,7.425c.186-.557,1.237-3.279,1.237-3.279s.247-.681.433-1.114l.186,1.052s.619,2.784.742,3.4h-2.6Z"
              transform="translate(-330.681 -4.429)" fill="#3c58bf"/>
        <path d="M365.392,180.4c-.742,0-1.3.062-1.609.8L358.4,191.537h3.341l.619-1.856h3.96l.371,1.856h2.97l-2.6-11.137Zm-2.166,7.425c.247-.619,1.237-3.279,1.237-3.279s.247-.681.433-1.114l.186,1.052s.619,2.784.742,3.4h-2.6Z"
              transform="translate(-330.681 -4.429)" fill="#293688"/>
        <path d="M55.84,188.934l-.309-1.609a8.969,8.969,0,0,0-4.331-4.888l2.784,9.9h3.341L62.337,181.2H59Z"
              transform="translate(-47.24 -5.167)" fill="#3c58bf"/>
        <path d="M55.84,188.934l-.309-1.609a8.969,8.969,0,0,0-4.331-4.888l2.784,9.9h3.341L62.337,181.2H59.615Z"
              transform="translate(-47.24 -5.167)" fill="#293688"/>
        <path d="M0,180.4l.557.124c3.96.928,6.682,3.279,7.734,6.063l-1.114-5.259c-.186-.742-.742-.928-1.423-.928Z"
              transform="translate(0 -4.429)" fill="#ffbc00"/>
        <path d="M0,180.4H0c3.96.928,7.239,3.341,8.291,6.125l-1.052-4.393a1.51,1.51,0,0,0-1.485-1.176Z"
              transform="translate(0 -4.429)" fill="#f7981d"/>
        <path d="M0,180.4H0c3.96.928,7.239,3.341,8.291,6.125l-.742-2.413a2.182,2.182,0,0,0-1.3-1.794Z"
              transform="translate(0 -4.429)" fill="#ed7c00"/>
        <g transform="translate(4.022 177.209)">
            <path d="M59.672,202.587l-2.1-2.1-.99,2.351-.247-1.547A8.969,8.969,0,0,0,52,196.4l2.784,9.9h3.341Z"
                  transform="translate(-52 -196.4)" fill="#051244"/>
            <path transform="translate(-174.529 -282.023)" fill="#051244"/>
            <path d="M253.383,274.8h0c.247.247.371.433.309.681,0,.742-.99,1.114-1.856,1.114a6.725,6.725,0,0,1-2.97-.619l-.433-.186L248,278.327a10.033,10.033,0,0,0,3.527.619,6.126,6.126,0,0,0,4.517-1.547Z"
                  transform="translate(-232.841 -268.737)" fill="#051244"/>
            <path d="M364,227.705h2.908l.619-1.856h3.96l.371,1.856h2.97l-1.052-4.517-3.712-3.589.186.99s.619,2.784.742,3.4h-2.6c.247-.619,1.237-3.279,1.237-3.279s.247-.681.433-1.114"
                  transform="translate(-339.87 -217.806)" fill="#051244"/>
        </g>
    </g>
</svg>
