<svg xmlns="http://www.w3.org/2000/svg" width="20.014" height="28.016" viewBox="0 0 20.014 28.016">
  <path id="reports" d="M64,725l-.07,0H58a34.749,34.749,0,0,1-3.572-.1,3.237,3.237,0,0,1-3.325-3.323A34.437,34.437,0,0,1,51,718V704a34.7,34.7,0,0,1,.1-3.572,3.235,3.235,0,0,1,3.322-3.325A34.467,34.467,0,0,1,58,697h5.84a.954.954,0,0,1,.144-.013.967.967,0,0,1,.21.02,4.775,4.775,0,0,1,2.26.357,9.389,9.389,0,0,1,2.254,1.93,9.369,9.369,0,0,1,1.931,2.26,4.773,4.773,0,0,1,.356,2.254,1,1,0,0,1,.006.362V718a34.654,34.654,0,0,1-.1,3.574,3.237,3.237,0,0,1-3.325,3.323,32.974,32.974,0,0,1-3.425.1Zm-9.352-25.913a1.344,1.344,0,0,0-1.559,1.561C53.006,701.4,53,702.5,53,704v14c0,1.5.006,2.605.09,3.352a1.343,1.343,0,0,0,1.561,1.558c.746.084,1.855.09,3.35.09h6l.07,0c1.454,0,2.547-.007,3.279-.089a1.345,1.345,0,0,0,1.561-1.559c.085-.746.09-1.855.09-3.352V705H64a1,1,0,0,1-1-1v-5H58C56.5,699,55.394,699.006,54.648,699.089ZM65,703h3.976a1.445,1.445,0,0,0-.127-.553,10.131,10.131,0,0,0-1.557-1.741,10.184,10.184,0,0,0-1.736-1.556,1.468,1.468,0,0,0-.556-.128Zm1,17H55.972A1,1,0,1,1,56,718H66.029a1,1,0,0,1-.015,2Zm0-4H55.972A1,1,0,1,1,56,714H66.029a1,1,0,0,1-.014,2Zm0-4H55.972A1,1,0,1,1,56,710H66.029a1,1,0,0,1-.014,2Z" transform="translate(-50.999 -696.986)" fill="#434343"/>
</svg>
