<svg xmlns="http://www.w3.org/2000/svg" width="25.317" height="28.066" viewBox="0 0 25.317 28.066">
  <path id="pages" d="M16.729,0H8.157A3.015,3.015,0,0,0,5.144,3.012v1.26H1.135A3.014,3.014,0,0,0-1.879,7.285V25.049a3.015,3.015,0,0,0,3.014,3.014H13.4a3.015,3.015,0,0,0,3.014-3.014v-1.26h4.009a3.015,3.015,0,0,0,3.014-3.014V1.237A1.317,1.317,0,0,0,23.09.363,1.775,1.775,0,0,0,22.08,0ZM13.4,26.468H1.135c-1,0-1.428-.421-1.431-1.419V7.309c0-1,.433-1.83,1.431-1.832h12.4a1.624,1.624,0,0,1,1,.233,1.189,1.189,0,0,1,.382.74l.035,1.721c-.019,1.749.009,5.5,0,9.913,0,1.381-.032,2.947,0,4.823.012.738-.1,1.122-.059,2.142C14.888,26.048,14.4,26.465,13.4,26.468Zm7.022-3.884H16.416V10.968l.07-5.587a1.289,1.289,0,0,0-.3-.854,1.589,1.589,0,0,0-.936-.256h-8.9V3.012A1.814,1.814,0,0,1,8.157,1.2H22.233V20.776A1.814,1.814,0,0,1,20.424,22.584Zm0,0" transform="translate(1.879 0.003)"/>
</svg>
