<svg id="facebook_3_" data-name="facebook (3)" xmlns="http://www.w3.org/2000/svg" width="36.138" height="36.138" viewBox="0 0 36.138 36.138">
  <path id="Path_108" data-name="Path 108" d="M31.621,0H4.517A4.522,4.522,0,0,0,0,4.517v27.1a4.522,4.522,0,0,0,4.517,4.517h27.1a4.522,4.522,0,0,0,4.517-4.517V4.517A4.522,4.522,0,0,0,31.621,0Z" transform="translate(0)" fill="#1976d2"/>
  <path id="Path_109" data-name="Path 109" d="M208.94,107.293h-5.647v-4.517c0-1.247,1.012-1.129,2.259-1.129h2.259V96h-4.517a6.775,6.775,0,0,0-6.776,6.776v4.517H192v5.647h4.517v12.422h6.776V112.94h3.388Z" transform="translate(-178.448 -89.224)" fill="#fafafa"/>
</svg>
