<svg id="play-button" xmlns="http://www.w3.org/2000/svg" width="33.15" height="33.146" viewBox="0 0 33.15 33.146">
  <path id="Path_110" data-name="Path 110" d="M20.749,14.921l-6.884-5a.83.83,0,0,0-1.318.67v10a.827.827,0,0,0,.453.74.836.836,0,0,0,.377.089.825.825,0,0,0,.488-.161l6.884-5a.823.823,0,0,0,0-1.339Z" transform="translate(1.294 1.004)" fill="#585858"/>
  <path id="Path_111" data-name="Path 111" d="M16.576,0A16.573,16.573,0,1,0,33.15,16.578,16.574,16.574,0,0,0,16.576,0Zm0,30.38a13.807,13.807,0,1,1,13.8-13.8A13.8,13.8,0,0,1,16.576,30.382Z" transform="translate(0 -0.002)" fill="#585858"/>
</svg>
