<svg id="youtube_1_" data-name="youtube (1)" xmlns="http://www.w3.org/2000/svg" width="37.584" height="26.315" viewBox="0 0 37.584 26.315">
  <path id="Path_141" data-name="Path 141" d="M36.81,4.118A4.709,4.709,0,0,0,33.5.8C30.556,0,18.792,0,18.792,0S7.027,0,4.086.774A4.8,4.8,0,0,0,.774,4.118C0,7.058,0,13.157,0,13.157s0,6.13.774,9.04A4.71,4.71,0,0,0,4.087,25.51c2.972.8,14.705.8,14.705.8s11.764,0,14.705-.774a4.709,4.709,0,0,0,3.313-3.312c.774-2.941.774-9.04.774-9.04S37.615,7.058,36.81,4.118Zm0,0" transform="translate(0 0)" fill="red"/>
  <path id="Path_142" data-name="Path 142" d="M204.969,113.753l9.783-5.634-9.783-5.634Zm0,0" transform="translate(-189.923 -94.961)" fill="#fff"/>
</svg>
