<svg xmlns="http://www.w3.org/2000/svg" width="24" height="24.002" viewBox="0 0 24 24.002">
  <path id="home_8_" data-name="home (8)" d="M23.855,10.44l0,0L14.062.647a2.209,2.209,0,0,0-3.125,0L1.151,10.433l-.01.01a2.209,2.209,0,0,0,1.47,3.765c.023,0,.045,0,.068,0h.39v7.205A2.589,2.589,0,0,0,5.656,24H9.487a.7.7,0,0,0,.7-.7V17.65a1.181,1.181,0,0,1,1.18-1.18h2.259a1.181,1.181,0,0,1,1.18,1.18V23.3a.7.7,0,0,0,.7.7h3.831a2.589,2.589,0,0,0,2.586-2.586V14.211h.362a2.21,2.21,0,0,0,1.564-3.771Zm-1,2.129a.8.8,0,0,1-.568.235H21.226a.7.7,0,0,0-.7.7v7.908a1.181,1.181,0,0,1-1.18,1.18H16.216V17.65a2.589,2.589,0,0,0-2.586-2.586H11.37A2.589,2.589,0,0,0,8.783,17.65V22.6H5.656a1.181,1.181,0,0,1-1.18-1.18V13.508a.7.7,0,0,0-.7-.7H2.693a.8.8,0,0,1-.553-1.37h0l9.791-9.79a.8.8,0,0,1,1.136,0l9.789,9.788,0,0A.805.805,0,0,1,22.859,12.569Zm0,0" transform="translate(-0.499)" fill="#fff"/>
</svg>
