<svg id="resize_1_" data-name="resize (1)" xmlns="http://www.w3.org/2000/svg" width="25.184" height="25.184" viewBox="0 0 25.184 25.184">
  <g id="Сгруппировать_146" data-name="Сгруппировать 146">
    <g id="Сгруппировать_145" data-name="Сгруппировать 145">
      <path id="Контур_158" data-name="Контур 158" d="M24.446,0H6.739A.738.738,0,0,0,6,.738V11.805H.738A.738.738,0,0,0,0,12.543v11.9a.738.738,0,0,0,.738.738h11.9a.738.738,0,0,0,.738-.738V19.183H24.446a.738.738,0,0,0,.738-.738V.738A.738.738,0,0,0,24.446,0ZM11.9,23.709H1.476V13.281H6v5.165a.738.738,0,0,0,.738.738H11.9Zm0-6H7.477V13.281H11.9Zm11.805,0H13.379V12.543a.738.738,0,0,0-.738-.738H7.477V1.476H23.709Z" fill="#fff"/>
    </g>
  </g>
  <g id="Сгруппировать_148" data-name="Сгруппировать 148" transform="translate(14.855 2.951)">
    <g id="Сгруппировать_147" data-name="Сгруппировать 147">
      <path id="Контур_159" data-name="Контур 159" d="M309.378,60.736A.738.738,0,0,0,308.64,60h-4.427a.738.738,0,1,0,0,1.476h2.646l-4.643,4.643a.738.738,0,1,0,1.043,1.043l4.643-4.643v2.646a.738.738,0,1,0,1.476,0V60.736Z" transform="translate(-302 -60)" fill="#fff"/>
    </g>
  </g>
</svg>
