<svg id="Solid" xmlns="http://www.w3.org/2000/svg" width="24.844" height="24.844" viewBox="0 0 24.844 24.844">
  <path id="Контур_156" data-name="Контур 156" d="M143.684,31.039l2.652-2.652V42.418a1.285,1.285,0,1,0,2.57,0V28.387l2.652,2.652a1.285,1.285,0,1,0,1.817-1.817l-4.846-4.846a1.285,1.285,0,0,0-1.817,0l-4.846,4.846a1.285,1.285,0,1,0,1.817,1.817Z" transform="translate(-135.2 -23.999)" fill="#fff"/>
  <path id="Контур_157" data-name="Контур 157" d="M47.559,232a1.285,1.285,0,0,0-1.285,1.285v9.852H26.57v-9.852a1.285,1.285,0,1,0-2.57,0v10.28a2.142,2.142,0,0,0,2.142,2.142H46.7a2.142,2.142,0,0,0,2.142-2.142v-10.28A1.285,1.285,0,0,0,47.559,232Z" transform="translate(-24 -220.863)" fill="#fff"/>
</svg>
