<svg xmlns="http://www.w3.org/2000/svg" width="21.137" height="12.722" viewBox="0 0 21.137 12.722">
  <path id="Pfad_265" data-name="Pfad 265" d="M12.078,17,7.362,4.994H4.734L.018,17h2.3L3.2,14.7H8.892L9.774,17ZM8.3,12.842H3.8l2.25-6.066ZM20.538,17V11.24c0-2.34-1.692-3.15-3.618-3.15a5.17,5.17,0,0,0-3.654,1.4l.774,1.314a3.56,3.56,0,0,1,2.574-1.1c1.206,0,2.034.612,2.034,1.62v1.3A3.594,3.594,0,0,0,15.84,11.51a2.8,2.8,0,0,0-3.024,2.826,2.888,2.888,0,0,0,3.024,2.88,3.67,3.67,0,0,0,2.808-1.152V17Zm-1.89-1.98a2.545,2.545,0,0,1-2.07.9,1.648,1.648,0,0,1-1.854-1.548,1.65,1.65,0,0,1,1.854-1.566,2.545,2.545,0,0,1,2.07.9Z" transform="translate(0.349 -4.744)" fill="#13191d" stroke="#000" stroke-width="0.5"/>
</svg>
