<svg xmlns="http://www.w3.org/2000/svg" width="23.958" height="22.977" viewBox="0 0 23.958 22.977">
  <path id="add-folder" d="M23.958,5.711v9.078a.936.936,0,0,1-1.872,0V8.518H5.381a.936.936,0,0,1,0-1.872H22.086V5.711a.935.935,0,0,0-.936-.936H10.107a.936.936,0,0,1-.936-.936V3.745A1.874,1.874,0,0,0,7.3,1.873H3.743A1.874,1.874,0,0,0,1.872,3.743V9.964s0,0,0,0v8.237a1.874,1.874,0,0,0,1.872,1.872h9.593a.936.936,0,0,1,0,1.872H3.743A3.748,3.748,0,0,1,0,18.206V12.5s0,0,0,0V3.743A3.748,3.748,0,0,1,3.743,0H7.3a3.75,3.75,0,0,1,3.647,2.9h10.2a2.807,2.807,0,0,1,2.807,2.808ZM23.022,17.6H20.448V15.022a.936.936,0,1,0-1.872,0V17.6H16a.936.936,0,1,0,0,1.872h2.574v2.574a.936.936,0,0,0,1.872,0V19.468h2.574a.936.936,0,1,0,0-1.872Zm0,0"/>
</svg>
