<svg xmlns="http://www.w3.org/2000/svg" width="17.812" height="20.854" viewBox="0 0 17.812 20.854">
  <g id="apple" transform="translate(-37.336)">
    <g id="Group_118" data-name="Group 118" transform="translate(45.897)">
      <g id="Group_117" data-name="Group 117">
        <path id="Path_150" data-name="Path 150" d="M251.776,0a4.894,4.894,0,0,0-3.168,1.715,4.25,4.25,0,0,0-1.037,3.3,4.13,4.13,0,0,0,3.2-1.633A4.588,4.588,0,0,0,251.776,0Z" transform="translate(-247.522)"/>
      </g>
    </g>
    <g id="Group_120" data-name="Group 120" transform="translate(37.336 4.881)">
      <g id="Group_119" data-name="Group 119">
        <path id="Path_151" data-name="Path 151" d="M54.545,121.955a5.279,5.279,0,0,0-3.984-2.115c-1.87,0-2.661.9-3.961.9-1.34,0-2.358-.893-3.975-.893a5.409,5.409,0,0,0-4.353,2.631c-1.508,2.338-1.25,6.734,1.194,10.479.875,1.34,2.042,2.847,3.57,2.86,1.359.013,1.743-.872,3.584-.881s2.191.893,3.548.878c1.529-.012,2.761-1.681,3.635-3.021a15.026,15.026,0,0,0,1.346-2.529A4.6,4.6,0,0,1,54.545,121.955Z" transform="translate(-37.336 -119.84)"/>
      </g>
    </g>
  </g>
</svg>
