<svg xmlns="http://www.w3.org/2000/svg" viewBox="0 0 181.4 181.4"><path d="M20.6 181.4V0H83c22.5 0 40 4.2 52.7 12.5a41.8 41.8 0 0 1 19 37.3c0 8.7-2 16.4-6.2 23a37.4 37.4 0 0 1-18.8 15.3 37.3 37.3 0 0 1 23.6 14.5c5 7.3 7.6 15.6 7.6 25.1 0 17.7-6 31-17.8 40.1-12 9-29 13.6-51.1 13.6H20.6zM63 75.6h20.9c9.5-.1 16.7-2 21.4-5.5 4.7-3.6 7.1-8.7 7.1-15.5 0-7.8-2.4-13.4-7.2-17-4.8-3.4-12.2-5.2-22.2-5.2H63v43.2zm0 28V149h29c9 0 15.7-1.8 20.2-5.3 4.4-3.5 6.7-9 6.7-16.2 0-8-2-13.9-5.8-18-3.9-4-10.1-6-18.8-6H63z"/></svg>
