<svg xmlns="http://www.w3.org/2000/svg" width="28.718" height="27.521" viewBox="0 0 28.718 27.521">
  <path id="star_3_" data-name="star (3)" d="M6.428,28.013a1.529,1.529,0,0,1-1.487-1.867l1.847-8.138L.523,12.513a1.527,1.527,0,0,1,.865-2.671l8.29-.753,3.278-7.67a1.526,1.526,0,0,1,2.807,0L19.04,9.09l8.289.753a1.528,1.528,0,0,1,.868,2.671l-6.265,5.494,1.847,8.138a1.526,1.526,0,0,1-2.271,1.649l-7.148-4.272L7.21,27.8A1.53,1.53,0,0,1,6.428,28.013Zm7.931-6.331a1.53,1.53,0,0,1,.783.216l6.746,4.035-1.744-7.681a1.526,1.526,0,0,1,.484-1.487l5.916-5.188-7.827-.711a1.525,1.525,0,0,1-1.268-.925L14.359,2.7,11.266,9.942A1.52,1.52,0,0,1,10,10.863l-7.828.711,5.916,5.188a1.523,1.523,0,0,1,.484,1.489L6.83,25.932,13.576,21.9A1.529,1.529,0,0,1,14.359,21.682ZM9.614,9.238a0,0,0,0,1,0,0Zm9.487,0v0S19.1,9.236,19.1,9.235Zm0,0" transform="translate(0 -0.492)"/>
</svg>
