<svg xmlns="http://www.w3.org/2000/svg" width="140.696" height="132.126" viewBox="0 0 140.696 132.126">
  <g id="star-shape" transform="translate(0 -15.593)">
    <path id="Контур_2306" data-name="Контур 2306" d="M74.367,18.052,92.633,54.478a4.477,4.477,0,0,0,3.374,2.413l40.845,5.841a4.393,4.393,0,0,1,2.484,7.524L109.781,98.611a4.368,4.368,0,0,0-1.289,3.9l6.977,40.037a4.468,4.468,0,0,1-6.5,4.65L72.433,128.3a4.547,4.547,0,0,0-4.171,0L31.729,147.2a4.467,4.467,0,0,1-6.5-4.65L32.2,102.515a4.368,4.368,0,0,0-1.289-3.9L1.358,70.257a4.393,4.393,0,0,1,2.484-7.524l40.845-5.841a4.478,4.478,0,0,0,3.374-2.413L66.328,18.052a4.514,4.514,0,0,1,8.039,0Z" transform="translate(0)" fill="#deebf4"/>
    <path id="Контур_2307" data-name="Контур 2307" d="M205.731,70.259a4.393,4.393,0,0,0-2.484-7.524L162.4,56.894a4.478,4.478,0,0,1-3.374-2.413L140.76,18.054a4.522,4.522,0,0,0-7.546-.774A78.43,78.43,0,0,1,93.379,132.46L91.62,142.555a4.468,4.468,0,0,0,6.5,4.65l36.533-18.9a4.547,4.547,0,0,1,4.171,0l36.533,18.9a4.467,4.467,0,0,0,6.5-4.65l-6.977-40.037a4.368,4.368,0,0,1,1.289-3.9Z" transform="translate(-66.394 -0.003)" fill="#c5d3de"/>
  </g>
</svg>
