<svg xmlns="http://www.w3.org/2000/svg" width="25" height="26.195" viewBox="0 0 25 26.195">
  <g id="cogwheel" transform="translate(0)">
    <path id="Path_220" data-name="Path 220" d="M143.143,160.321a5.495,5.495,0,1,1,5.495-5.495A5.5,5.5,0,0,1,143.143,160.321Zm0-9.341a3.846,3.846,0,1,0,3.846,3.846A3.851,3.851,0,0,0,143.143,150.98Zm0,0" transform="translate(-130.644 -141.729)"/>
    <path id="Path_221" data-name="Path 221" d="M14.315,26.2h-3.63A1.893,1.893,0,0,1,8.85,24.721L8.39,22.677a10.033,10.033,0,0,1-2.133-1.239l-1.99.629a1.892,1.892,0,0,1-2.209-.861L.249,18.077A1.908,1.908,0,0,1,.6,15.748L2.141,14.33a11.044,11.044,0,0,1-.07-1.232,11.284,11.284,0,0,1,.069-1.232L.607,10.454A1.905,1.905,0,0,1,.243,8.128L2.064,4.979a1.892,1.892,0,0,1,2.2-.854l1.993.63A10.043,10.043,0,0,1,8.39,3.517l.46-2.045A1.891,1.891,0,0,1,10.684,0h3.63a1.893,1.893,0,0,1,1.835,1.475l.459,2.043a10.033,10.033,0,0,1,2.133,1.239l1.99-.629a1.893,1.893,0,0,1,2.209.861l1.81,3.129a1.908,1.908,0,0,1-.351,2.329l-1.542,1.418a11.078,11.078,0,0,1,0,2.465l1.534,1.41.008.007a1.9,1.9,0,0,1,.356,2.319l-1.821,3.149a1.887,1.887,0,0,1-2.2.852l-1.993-.63a10.046,10.046,0,0,1-2.133,1.239l-.461,2.045A1.889,1.889,0,0,1,14.315,26.2Zm-7.89-6.484a.818.818,0,0,1,.521.187,8.407,8.407,0,0,0,2.433,1.411.818.818,0,0,1,.515.588l.556,2.467a.245.245,0,0,0,.237.194h3.63a.243.243,0,0,0,.236-.192l.557-2.469a.818.818,0,0,1,.515-.588A8.423,8.423,0,0,0,18.056,19.9a.816.816,0,0,1,.767-.149l2.4.759a.245.245,0,0,0,.289-.1l1.821-3.149a.267.267,0,0,0-.052-.315l-1.842-1.694a.818.818,0,0,1-.255-.724,9.48,9.48,0,0,0,0-2.855.819.819,0,0,1,.255-.724l1.847-1.7a.266.266,0,0,0,.043-.321L21.52,5.8a.25.25,0,0,0-.3-.109l-2.4.757a.817.817,0,0,1-.767-.149,8.408,8.408,0,0,0-2.433-1.411.817.817,0,0,1-.515-.588l-.556-2.467a.25.25,0,0,0-.239-.192h-3.63a.243.243,0,0,0-.236.192L9.892,4.3a.819.819,0,0,1-.515.588A8.4,8.4,0,0,0,6.945,6.3a.821.821,0,0,1-.767.149l-2.4-.759a.247.247,0,0,0-.289.1L1.666,8.937a.267.267,0,0,0,.056.319l1.84,1.691a.818.818,0,0,1,.255.724,9.478,9.478,0,0,0,0,2.855.82.82,0,0,1-.255.724l-1.847,1.7a.267.267,0,0,0-.043.321L3.482,20.4a.251.251,0,0,0,.3.109l2.4-.758A.8.8,0,0,1,6.424,19.711Zm0,0" transform="translate(0)"/>
  </g>
</svg>
