<svg id="Group_153" data-name="Group 153" xmlns="http://www.w3.org/2000/svg" width="31.456" height="26.621" viewBox="0 0 31.456 26.621">
  <path id="Path_164" data-name="Path 164" d="M27.581,44.2H17.625a1.5,1.5,0,0,1-1.071-.448l-3.107-3.272a3.937,3.937,0,0,0-2.8-1.127H3.876A3.88,3.88,0,0,0,0,43.232V62.1a3.88,3.88,0,0,0,3.876,3.876H27.6a3.88,3.88,0,0,0,3.858-3.888V48.079A3.88,3.88,0,0,0,27.581,44.2Zm1.505,17.89a1.506,1.506,0,0,1-1.493,1.512H3.876A1.507,1.507,0,0,1,2.371,62.1V43.232a1.509,1.509,0,0,1,1.505-1.506h6.838a1.5,1.5,0,0,1,1.038.414l3.09,3.257a3.894,3.894,0,0,0,2.783,1.178h9.956a1.507,1.507,0,0,1,1.505,1.505V62.094Z" transform="translate(0 -39.356)"/>
</svg>
