<svg xmlns="http://www.w3.org/2000/svg" width="23.456" height="20.512" viewBox="0 0 23.456 20.512">
  <path id="folder_1_" data-name="folder (1)" d="M21.3,34.341H9.394a.78.78,0,0,1-.555-.23L7.493,32.765a2.145,2.145,0,0,0-1.527-.632H2.159A2.162,2.162,0,0,0,0,34.292V50.485a2.158,2.158,0,0,0,2.159,2.159H21.3a2.158,2.158,0,0,0,2.159-2.159V36.5A2.158,2.158,0,0,0,21.3,34.341ZM2.159,33.507H5.966a.78.78,0,0,1,.555.23l1.346,1.346a2.145,2.145,0,0,0,1.527.632H21.3a.785.785,0,0,1,.785.785v1.668a2.157,2.157,0,0,0-.785-.147H2.159a2.157,2.157,0,0,0-.785.147V34.292A.786.786,0,0,1,2.159,33.507ZM22.082,50.485a.784.784,0,0,1-.785.785H2.159a.784.784,0,0,1-.785-.785v-10.3a.784.784,0,0,1,.785-.785H21.3a.785.785,0,0,1,.785.785Z" transform="translate(0 -32.133)"/>
</svg>
