<svg id="duplicate" xmlns="http://www.w3.org/2000/svg" width="24.497" height="24.497" viewBox="0 0 24.497 24.497">
  <g id="Gruppe_368" data-name="Gruppe 368">
    <path id="Pfad_182" data-name="Pfad 182" d="M13.971,7.655H2.871A2.874,2.874,0,0,0,0,10.526v11.1A2.874,2.874,0,0,0,2.871,24.5h11.1a2.874,2.874,0,0,0,2.871-2.871v-11.1A2.874,2.874,0,0,0,13.971,7.655Zm.957,13.971a.958.958,0,0,1-.957.957H2.871a.958.958,0,0,1-.957-.957v-11.1a.958.958,0,0,1,.957-.957h11.1a.958.958,0,0,1,.957.957Zm-5.55-8.421H7.464v1.914H5.55v1.914H7.464v1.914H9.378V17.033h1.914V15.119H9.378ZM17.8,3.828H3.828V5.742H17.8a.958.958,0,0,1,.957.957V20.669h1.914V6.7A2.874,2.874,0,0,0,17.8,3.828ZM21.626,0H7.655V1.914H21.626a.958.958,0,0,1,.957.957V16.842H24.5V2.871A2.874,2.874,0,0,0,21.626,0Z"/>
  </g>
</svg>
