<svg xmlns="http://www.w3.org/2000/svg" width="24.409" height="23.999" viewBox="0 0 24.409 23.999">
  <g id="edit" transform="translate(0 -4.296)">
    <g id="Group_381" data-name="Group 381" transform="translate(0 5.766)">
      <g id="Group_380" data-name="Group 380" transform="translate(0 0)">
        <path id="Path_204" data-name="Path 204" d="M18.972,49.2a1.185,1.185,0,0,0-1.186,1.186V54.11A1.186,1.186,0,0,1,16.6,55.3H3.557A1.186,1.186,0,0,1,2.371,54.11V38.7a1.186,1.186,0,0,1,1.186-1.186h6.889a1.186,1.186,0,1,0,0-2.371H3.557A3.561,3.561,0,0,0,0,38.7V54.11a3.562,3.562,0,0,0,3.557,3.557H16.6a3.561,3.561,0,0,0,3.557-3.557V50.385A1.185,1.185,0,0,0,18.972,49.2Z" transform="translate(0 -35.138)"/>
      </g>
    </g>
    <g id="Group_383" data-name="Group 383" transform="translate(6.83 4.296)">
      <g id="Group_382" data-name="Group 382">
        <path id="Path_205" data-name="Path 205" d="M159.518,5.615a4.564,4.564,0,0,0-6.409-.011l-8.027,8.027a6.188,6.188,0,0,0-1.817,4.394v2.656a1.185,1.185,0,0,0,1.186,1.186h2.656a6.189,6.189,0,0,0,4.4-1.818l8.017-8.017A4.548,4.548,0,0,0,159.518,5.615Zm-9.691,12.757a3.831,3.831,0,0,1-2.72,1.124h-1.47v-1.47a3.831,3.831,0,0,1,1.123-2.719l5.292-5.292,3.066,3.066Zm8.014-8.014-1.047,1.047-3.066-3.066,1.047-1.047a2.168,2.168,0,0,1,3.066,3.066Z" transform="translate(-143.265 -4.296)"/>
      </g>
    </g>
  </g>
</svg>
