<svg xmlns="http://www.w3.org/2000/svg" width="24.959" height="22.57" viewBox="0 0 24.959 22.57">
  <path id="heart_3_" data-name="heart (3)" d="M24.694,21.546a7.791,7.791,0,0,0-2.618-4.151,6.941,6.941,0,0,0-4.361-1.6,6.832,6.832,0,0,0-5.236,2.535A6.828,6.828,0,0,0,7.244,15.8a6.937,6.937,0,0,0-4.36,1.6A7.793,7.793,0,0,0,.266,21.546a10.189,10.189,0,0,0,1.608,8.092c1.961,3.128,5.346,6.018,10.061,8.59a1.134,1.134,0,0,0,1.086,0c4.716-2.572,8.1-5.462,10.064-8.59A10.187,10.187,0,0,0,24.694,21.546ZM12.478,35.936C1.5,29.751,2.032,23.8,2.464,22.107a5.176,5.176,0,0,1,4.78-4.041,5.073,5.073,0,0,1,4.263,2.784,1.134,1.134,0,0,0,.97.547h0a1.134,1.134,0,0,0,.97-.547,5.077,5.077,0,0,1,4.266-2.784A5.177,5.177,0,0,1,22.5,22.107C22.928,23.8,23.456,29.75,12.478,35.936Z" transform="translate(0 -15.797)"/>
</svg>
