<svg xmlns="http://www.w3.org/2000/svg" width="14.717" height="12.455" viewBox="0 0 14.717 12.455">
  <g id="Сгруппировать_480" data-name="Сгруппировать 480" transform="translate(0 0)">
    <path id="Контур_164" data-name="Контур 164" d="M12.9,41.624H8.246a.7.7,0,0,1-.5-.21L6.291,39.883a1.842,1.842,0,0,0-1.311-.527H1.813A1.815,1.815,0,0,0,0,41.169V50A1.815,1.815,0,0,0,1.813,51.81h11.1a1.815,1.815,0,0,0,1.8-1.819V43.437A1.815,1.815,0,0,0,12.9,41.624Zm.7,8.37a.7.7,0,0,1-.7.708H1.813a.705.705,0,0,1-.7-.7V41.169a.706.706,0,0,1,.7-.7h3.2a.7.7,0,0,1,.486.194l1.446,1.524a1.822,1.822,0,0,0,1.3.551H12.9a.705.705,0,0,1,.7.7v6.557Z" transform="translate(0 -39.356)"/>
  </g>
</svg>
