<svg id="XMLID_198_" xmlns="http://www.w3.org/2000/svg" width="23.273" height="23.519" viewBox="0 0 23.273 23.519">
  <g id="XMLID_201_" transform="translate(13.472)">
    <path id="XMLID_202_" d="M280.236.2a.693.693,0,0,0-.617-.19l-6.273,1.175A.777.777,0,0,0,272.94,2.5l.994.993-3.1,3.1a.646.646,0,0,0,0,.914l2.135,2.132a.646.646,0,0,0,.914,0l3.1-3.1.994.993a.776.776,0,0,0,1.312-.411l1.142-6.3A.694.694,0,0,0,280.236.2Z" transform="translate(-270.64 0)"/>
  </g>
  <g id="XMLID_199_" transform="translate(0 13.688)">
    <path id="XMLID_200_" d="M6.029,275.819l-.994-.994a.776.776,0,0,0-1.312.411l-1.142,6.3a.7.7,0,0,0,.811.807l6.273-1.175a.777.777,0,0,0,.406-1.312l-.993-.993,3.107-3.1a.646.646,0,0,0,0-.915l-2.139-2.137a.646.646,0,0,0-.914,0Z" transform="translate(-2.569 -272.527)"/>
  </g>
</svg>
