<svg id="google" xmlns="http://www.w3.org/2000/svg" width="19.016" height="19.016" viewBox="0 0 19.016 19.016">
  <defs>
    <style>
      .cls-1 {
        fill: #167ee6;
      }

      .cls-2 {
        fill: #12b347;
      }

      .cls-3 {
        fill: #0f993e;
      }

      .cls-4 {
        fill: #ffd500;
      }

      .cls-5 {
        fill: #ff4b26;
      }

      .cls-6 {
        fill: #d93f21;
      }
    </style>
  </defs>
  <path id="Path_143" data-name="Path 143" class="cls-1" d="M275.507,211.479h-7.756a.62.62,0,0,0-.62.62v2.478a.62.62,0,0,0,.62.62h4.368a5.831,5.831,0,0,1-2.51,2.941l1.862,3.224a9.323,9.323,0,0,0,4.754-8.153,6.285,6.285,0,0,0-.107-1.218A.623.623,0,0,0,275.507,211.479Z" transform="translate(-257.21 -203.625)"/>
  <path id="Path_144" data-name="Path 144" class="cls-2" d="M42.641,336.743a5.786,5.786,0,0,1-5.006-2.9l-3.224,1.858a9.5,9.5,0,0,0,12.984,3.485v0l-1.862-3.224A5.744,5.744,0,0,1,42.641,336.743Z" transform="translate(-33.133 -321.448)"/>
  <path id="Path_145" data-name="Path 145" class="cls-3" d="M260.754,394.008v0l-1.862-3.224a5.744,5.744,0,0,1-2.891.782v3.72A9.491,9.491,0,0,0,260.754,394.008Z" transform="translate(-246.492 -376.266)"/>
  <path id="Path_146" data-name="Path 146" class="cls-4" d="M3.72,132.868a5.744,5.744,0,0,1,.782-2.891l-3.224-1.858a9.464,9.464,0,0,0,0,9.5L4.5,135.76A5.744,5.744,0,0,1,3.72,132.868Z" transform="translate(0 -123.361)"/>
  <path id="Path_147" data-name="Path 147" class="cls-5" d="M42.641,3.72A5.761,5.761,0,0,1,46.315,5.04.618.618,0,0,0,47.146,5L48.9,3.247a.625.625,0,0,0-.036-.914A9.487,9.487,0,0,0,34.411,4.758l3.224,1.858A5.786,5.786,0,0,1,42.641,3.72Z" transform="translate(-33.133)"/>
  <path id="Path_148" data-name="Path 148" class="cls-6" d="M259.674,5.04A.618.618,0,0,0,260.506,5l1.756-1.756a.625.625,0,0,0-.036-.914A9.479,9.479,0,0,0,256,0V3.72A5.761,5.761,0,0,1,259.674,5.04Z" transform="translate(-246.492)"/>
</svg>
