<svg xmlns="http://www.w3.org/2000/svg" width="34.894" height="34.897" viewBox="0 0 34.894 34.897">
  <path id="home_9_" data-name="home (9)" d="M34.456,15.179l0,0L20.218.941a3.212,3.212,0,0,0-4.543,0L6.141,10.475,1.447,15.169l-.014.015A3.211,3.211,0,0,0,3.57,20.657c.033,0,.066,0,.1,0h.567V31.138A3.764,3.764,0,0,0,8,34.9h5.569a1.022,1.022,0,0,0,1.022-1.022V25.662A1.717,1.717,0,0,1,16.3,23.946h3.285A1.717,1.717,0,0,1,21.3,25.662v8.213A1.022,1.022,0,0,0,22.327,34.9H27.9a3.764,3.764,0,0,0,3.76-3.76V20.662h.526a3.213,3.213,0,0,0,2.274-5.483Zm-1.448,3.1a1.161,1.161,0,0,1-.826.342H30.634a1.022,1.022,0,0,0-1.022,1.022v11.5A1.717,1.717,0,0,1,27.9,32.853H23.349V25.662a3.764,3.764,0,0,0-3.76-3.76H16.3a3.765,3.765,0,0,0-3.76,3.76v7.191H8a1.717,1.717,0,0,1-1.715-1.715v-11.5a1.022,1.022,0,0,0-1.022-1.022H3.737l-.048,0a1.167,1.167,0,0,1-.8-1.992h0L17.121,2.387a1.167,1.167,0,0,1,1.651,0L33,16.618l.007.006A1.17,1.17,0,0,1,33.008,18.275Zm0,0" transform="translate(-0.499)"/>
</svg>
