<svg xmlns="http://www.w3.org/2000/svg" width="18.759" height="16.414" viewBox="0 0 18.759 16.414">
  <g id="right-text-alignment" transform="translate(0 0)">
    <path id="Pfad_246" data-name="Pfad 246" d="M17.426,64.216H1.333a1.333,1.333,0,1,1,0-2.666H17.426a1.333,1.333,0,1,1,0,2.666Z" transform="translate(0 -61.55)"/>
    <path id="Pfad_247" data-name="Pfad 247" d="M1.333,542.851H17.426a1.333,1.333,0,1,1,0,2.666H1.333a1.333,1.333,0,1,1,0-2.666Z" transform="translate(0 -533.685)"/>
    <path id="Pfad_248" data-name="Pfad 248" d="M150.933,302.15h13.243a1.333,1.333,0,0,1,0,2.666H150.933a1.333,1.333,0,0,1,0-2.666Z" transform="translate(-149.6 -297.568)"/>
    <path id="Pfad_249" data-name="Pfad 249" d="M394.033,783.45h8.614a1.333,1.333,0,1,1,0,2.666h-8.614a1.333,1.333,0,1,1,0-2.666Z" transform="translate(-392.7 -769.702)"/>
  </g>
</svg>
