<svg id="mastercard" xmlns="http://www.w3.org/2000/svg" width="22.335" height="13.958" viewBox="0 0 22.335 13.958">
  <path id="Контур_7" data-name="Контур 7" d="M13.954,61.7a6.977,6.977,0,1,1-6.977-6.979A6.977,6.977,0,0,1,13.954,61.7Z" transform="translate(0 -54.719)" fill="#e70026"/>
  <path id="Контур_8" data-name="Контур 8" d="M116.41,54.719a6.939,6.939,0,0,0-4.169,1.392h.006a5.978,5.978,0,0,1,.676.632l-1.452.023a7.179,7.179,0,0,0-.63.739h2.56a6.482,6.482,0,0,1,.538.7h-3.562a6.955,6.955,0,0,0-.357.7h4.324a5.94,5.94,0,0,1,.3.674h-4.881a6.718,6.718,0,0,0-.194.738h5.279c.052.242.091.465.119.692h-5.5c-.023.23-.035.463-.035.7h5.577a6.132,6.132,0,0,1-.043.7h-5.5q.036.355.1.7h5.271c-.054.226-.117.454-.2.69h-4.9a6.78,6.78,0,0,0,.262.7h4.334a6.359,6.359,0,0,1-.406.7h-3.574a6.793,6.793,0,0,0,.465.7l2.571.038a6.793,6.793,0,0,1-.757.652c.014.011-.41,0-1.244-.015a6.977,6.977,0,1,0,5.01-11.833Z" transform="translate(-101.054 -54.719)" fill="#f79937"/>
</svg>
