<svg xmlns="http://www.w3.org/2000/svg" xmlns:xlink="http://www.w3.org/1999/xlink" width="77" height="73" viewBox="0 0 77 73">
  <defs>
    <clipPath id="clip-path">
      <path id="Контур_2308" data-name="Контур 2308" d="M15,0H62A15,15,0,0,1,77,15V58A15,15,0,0,1,62,73H15A15,15,0,0,1,0,58V15A15,15,0,0,1,15,0Z" transform="translate(706 504)" fill="none"/>
    </clipPath>
  </defs>
  <g id="Группа_масок_2" data-name="Группа масок 2" transform="translate(-706 -504)" clip-path="url(#clip-path)">
    <g id="insert-picture-icon" transform="translate(706 502)">
      <path id="Контур_2309" data-name="Контур 2309" d="M68.3,2.41H8.709A8.718,8.718,0,0,0,0,11.123V65.887a8.713,8.713,0,0,0,8.709,8.7H68.3a8.709,8.709,0,0,0,8.7-8.7V11.123A8.714,8.714,0,0,0,68.3,2.41Zm-18.5,12.958a8.412,8.412,0,1,1-8.412,8.412A8.413,8.413,0,0,1,49.792,15.368ZM65.564,66.54H12.64c-2.323,0-3.358-1.681-2.311-3.755L24.766,34.192c1.046-2.073,3.039-2.258,4.451-.414l14.516,18.97a3.559,3.559,0,0,0,5.512.349L52.8,49.5a3.38,3.38,0,0,1,5.368.454l9.2,13.135C68.689,65,67.887,66.54,65.564,66.54Z" fill="#ccc"/>
    </g>
  </g>
</svg>
