<svg xmlns="http://www.w3.org/2000/svg" xmlns:xlink="http://www.w3.org/1999/xlink" width="100" height="100" viewBox="0 0 100 100">
  <defs>
    <filter id="Эллипс_16" x="0" y="0" width="100" height="100" filterUnits="userSpaceOnUse">
      <feOffset dy="3" input="SourceAlpha"/>
      <feGaussianBlur stdDeviation="5" result="blur"/>
      <feFlood flood-opacity="0.282"/>
      <feComposite operator="in" in2="blur"/>
      <feComposite in="SourceGraphic"/>
    </filter>
  </defs>
  <g id="Сгруппировать_474" data-name="Сгруппировать 474" transform="translate(-1743 -975)">
    <g transform="matrix(1, 0, 0, 1, 1743, 975)" filter="url(#Эллипс_16)">
      <circle id="Эллипс_16-2" data-name="Эллипс 16" cx="35" cy="35" r="35" transform="translate(15 12)" fill="#0057bf"/>
    </g>
    <path id="plus" d="M35.992,15.8H22.824V2.634A2.635,2.635,0,0,0,20.191,0H18.435A2.635,2.635,0,0,0,15.8,2.634V15.8H2.634A2.635,2.635,0,0,0,0,18.435v1.756a2.635,2.635,0,0,0,2.634,2.634H15.8V35.992a2.635,2.635,0,0,0,2.634,2.634h1.756a2.635,2.635,0,0,0,2.634-2.634V22.824H35.992a2.635,2.635,0,0,0,2.634-2.634V18.435A2.635,2.635,0,0,0,35.992,15.8Zm0,0" transform="translate(1773.687 1002.688)" fill="#fff"/>
  </g>
</svg>
