<svg xmlns="http://www.w3.org/2000/svg" width="22.734" height="19.893" viewBox="0 0 22.734 19.893">
  <g id="undo" transform="translate(0 0)">
    <g id="Gruppe_138" data-name="Gruppe 138">
      <path id="Pfad_153" data-name="Pfad 153" d="M.039,43.286A8.059,8.059,0,0,1,8.17,36.26h6.039V32.708a.71.71,0,0,1,1.154-.556l7.1,5.684a.712.712,0,0,1,0,1.111l-7.1,5.684a.711.711,0,0,1-1.155-.556V40.522H8.02a3.693,3.693,0,0,0-3.738,3.184,3.554,3.554,0,0,0,3.534,3.92H13.5a.711.711,0,0,1,.71.71v2.842a.711.711,0,0,1-.71.71H7.815A7.828,7.828,0,0,1,.039,43.286Z" transform="translate(0 -31.996)"/>
    </g>
  </g>
</svg>
