<svg xmlns="http://www.w3.org/2000/svg" width="25.334" height="25.333" viewBox="0 0 25.334 25.333">
  <g id="edit" transform="translate(0 -0.501)">
    <path id="Контур_236" data-name="Контур 236" d="M20.056,94.261A1.055,1.055,0,0,0,19,95.317v8.445a1.057,1.057,0,0,1-1.056,1.056H3.167a1.057,1.057,0,0,1-1.056-1.056V88.983a1.057,1.057,0,0,1,1.056-1.056h8.445a1.056,1.056,0,0,0,0-2.111H3.167A3.171,3.171,0,0,0,0,88.983v14.778a3.171,3.171,0,0,0,3.167,3.167H17.945a3.171,3.171,0,0,0,3.167-3.167V95.317A1.055,1.055,0,0,0,20.056,94.261Zm0,0" transform="translate(0 -81.094)"/>
    <path id="Контур_237" data-name="Контур 237" d="M182.709,76.613a.534.534,0,0,0-.145.269l-.746,3.733a.527.527,0,0,0,.518.631.5.5,0,0,0,.1-.01l3.732-.746a.525.525,0,0,0,.27-.145l8.352-8.352-3.731-3.731Zm0,0" transform="translate(-172.812 -64.408)"/>
    <path id="Контур_238" data-name="Контур 238" d="M396.638,1.273a2.641,2.641,0,0,0-3.732,0l-1.461,1.461,3.732,3.731L396.638,5a2.639,2.639,0,0,0,0-3.731Zm0,0" transform="translate(-372.077 0)"/>
  </g>
</svg>
