<svg xmlns="http://www.w3.org/2000/svg" width="20.538" height="20.538" viewBox="0 0 20.538 20.538">
  <g id="resize" transform="translate(0.5 0.5)">
    <path id="Pfad_66" data-name="Pfad 66" d="M292.572,296.579a.572.572,0,0,0,.572-.572v-2.052l3.984,3.984a.572.572,0,1,0,.809-.809l-3.984-3.984h2.052a.572.572,0,0,0,0-1.145h-3.441l-.05,0-.027,0-.028,0-.03.007-.025.006-.028.01-.025.009-.026.012-.025.012-.024.014-.024.015-.025.019-.02.014a.571.571,0,0,0-.08.08l-.015.02-.019.025-.015.025-.014.023-.012.026-.012.025c0,.008-.006.017-.009.025s-.007.018-.01.028,0,.017-.007.026-.005.019-.007.029,0,.02,0,.03,0,.017,0,.026,0,.036,0,.055v3.436A.572.572,0,0,0,292.572,296.579Zm0,0" transform="translate(-280.857 -280.857)" fill="#fff" stroke="#fff" stroke-width="1"/>
    <path id="Pfad_67" data-name="Pfad 67" d="M1.717,209.053H2.48a.572.572,0,0,0,0-1.145H1.717a.573.573,0,0,1-.572-.572v-.763a.572.572,0,0,0-1.145,0v.763A1.719,1.719,0,0,0,1.717,209.053Zm0,0" transform="translate(0 -198.139)" fill="#fff" stroke="#fff" stroke-width="1"/>
    <path id="Pfad_68" data-name="Pfad 68" d="M.572,3.053a.572.572,0,0,0,.572-.572V1.717a.573.573,0,0,1,.572-.572H2.48A.572.572,0,1,0,2.48,0H1.717A1.719,1.719,0,0,0,0,1.717V2.48A.572.572,0,0,0,.572,3.053Zm0,0" fill="#fff" stroke="#fff" stroke-width="1"/>
    <path id="Pfad_69" data-name="Pfad 69" d="M113.572,257.145h1.145a.572.572,0,0,0,0-1.145h-1.145a.572.572,0,0,0,0,1.145Zm0,0" transform="translate(-108.688 -246.231)" fill="#fff" stroke="#fff" stroke-width="1"/>
    <path id="Pfad_70" data-name="Pfad 70" d="M.572,115.29a.572.572,0,0,0,.572-.572v-1.145a.572.572,0,1,0-1.145,0v1.145A.572.572,0,0,0,.572,115.29Zm0,0" transform="translate(0 -108.688)" fill="#fff" stroke="#fff" stroke-width="1"/>
    <path id="Pfad_71" data-name="Pfad 71" d="M206.572,1.145h.763a.573.573,0,0,1,.572.572V2.48a.572.572,0,0,0,1.145,0V1.717A1.719,1.719,0,0,0,207.336,0h-.763a.572.572,0,0,0,0,1.145Zm0,0" transform="translate(-198.139)" fill="#fff" stroke="#fff" stroke-width="1"/>
    <path id="Pfad_72" data-name="Pfad 72" d="M113.572,1.145h1.145a.572.572,0,1,0,0-1.145h-1.145a.572.572,0,1,0,0,1.145Zm0,0" transform="translate(-108.688)" fill="#fff" stroke="#fff" stroke-width="1"/>
    <path id="Pfad_73" data-name="Pfad 73" d="M256.572,113a.572.572,0,0,0-.572.572v1.145a.572.572,0,0,0,1.145,0v-1.145A.572.572,0,0,0,256.572,113Zm0,0" transform="translate(-246.231 -108.688)" fill="#fff" stroke="#fff" stroke-width="1"/>
    <path id="Pfad_74" data-name="Pfad 74" d="M206.572,209.053h.763a1.719,1.719,0,0,0,1.717-1.717v-.763a.572.572,0,0,0-1.145,0v.763a.573.573,0,0,1-.572.572h-.763a.572.572,0,0,0,0,1.145Zm0,0" transform="translate(-198.139 -198.139)" fill="#fff" stroke="#fff" stroke-width="1"/>
    <path id="Pfad_75" data-name="Pfad 75" d="M17.82,0h-5.3a.572.572,0,1,0,0,1.145h5.3a.573.573,0,0,1,.572.572v16.1a.573.573,0,0,1-.572.572H1.717a.573.573,0,0,1-.572-.572V12.593a.572.572,0,0,0-1.145,0V17.82a1.719,1.719,0,0,0,1.717,1.717h16.1a1.719,1.719,0,0,0,1.717-1.717V1.717A1.719,1.719,0,0,0,17.82,0Zm0,0" fill="#fff" stroke="#fff" stroke-width="1"/>
  </g>
</svg>
