<svg xmlns="http://www.w3.org/2000/svg" width="25.608" height="27.315" viewBox="0 0 25.608 27.315">
  <g id="share" transform="translate(-16)">
    <g id="Gruppe_69" data-name="Gruppe 69" transform="translate(16)">
      <path id="Pfad_77" data-name="Pfad 77" d="M36.807,17.712a4.8,4.8,0,0,0-3.759,1.817l-7.714-4.288a4.8,4.8,0,0,0,0-3.167l7.714-4.288a4.783,4.783,0,1,0-.774-1.4L24.56,10.673a4.8,4.8,0,1,0,0,5.969l7.714,4.288a4.8,4.8,0,1,0,4.533-3.218Zm0-16.112a3.2,3.2,0,1,1-3.2,3.2A3.2,3.2,0,0,1,36.807,1.6ZM20.8,16.859a3.2,3.2,0,1,1,3.2-3.2A3.2,3.2,0,0,1,20.8,16.859Zm16.005,8.856a3.2,3.2,0,1,1,3.2-3.2A3.2,3.2,0,0,1,36.807,25.715Z" transform="translate(-16 0)"/>
    </g>
  </g>
</svg>
