<svg xmlns="http://www.w3.org/2000/svg" width="26.363" height="26.172" viewBox="0 0 26.363 26.172">
  <g id="time-left" transform="translate(0 -1.688)">
    <g id="Layer_2_16_" transform="translate(0 1.688)">
      <g id="Group_384" data-name="Group 384" transform="translate(0 0)">
        <path id="Path_206" data-name="Path 206" d="M254.193,423.187c-.217.054-.439.1-.659.143a1.06,1.06,0,0,0,.386,2.084c.262-.049.526-.106.785-.17a1.06,1.06,0,0,0-.512-2.057Z" transform="translate(-238.348 -399.27)"/>
        <path id="Path_207" data-name="Path 207" d="M412.767,138.3a1.06,1.06,0,0,0,2.012-.666c-.084-.253-.177-.507-.276-.755a1.06,1.06,0,1,0-1.968.787C412.619,137.872,412.7,138.085,412.767,138.3Z" transform="translate(-389.085 -128.587)"/>
        <path id="Path_208" data-name="Path 208" d="M321.971,394.087c-.187.123-.38.243-.574.355a1.06,1.06,0,1,0,1.059,1.836c.231-.133.461-.275.684-.422a1.06,1.06,0,0,0-1.168-1.768Z" transform="translate(-302.683 -371.684)"/>
        <path id="Path_209" data-name="Path 209" d="M429.753,208.33a1.06,1.06,0,1,0-2.118.083c.009.224.011.45.006.674a1.06,1.06,0,1,0,2.119.047C429.766,208.867,429.764,208.6,429.753,208.33Z" transform="translate(-403.4 -195.659)"/>
        <path id="Path_210" data-name="Path 210" d="M378.914,344.281a1.059,1.059,0,0,0-1.484.212c-.135.179-.276.356-.421.527a1.06,1.06,0,0,0,.12,1.494c.025.022.051.041.078.06a1.06,1.06,0,0,0,1.416-.18c.173-.2.342-.415.5-.629A1.06,1.06,0,0,0,378.914,344.281Z" transform="translate(-355.405 -324.666)"/>
        <path id="Path_211" data-name="Path 211" d="M415.371,279.4a1.06,1.06,0,0,0-1.328.694c-.067.213-.141.428-.221.638a1.06,1.06,0,0,0,1.98.755c.1-.25.183-.5.263-.758A1.06,1.06,0,0,0,415.371,279.4Z" transform="translate(-390.304 -263.616)"/>
        <path id="Path_212" data-name="Path 212" d="M11.221,25.756A10.943,10.943,0,0,1,8.5,24.893l-.03-.016c-.2-.1-.406-.2-.6-.305l0,0a11.306,11.306,0,0,1-1.054-.659A11.059,11.059,0,0,1,6.859,5.8L6.9,5.769a11.078,11.078,0,0,1,12.416-.1l-.828,1.2c-.23.333-.089.576.314.539l3.6-.322a.593.593,0,0,0,.536-.775l-.966-3.48c-.108-.39-.385-.437-.615-.1l-.83,1.2A13.088,13.088,0,0,0,10.93,1.885q-.509.088-1,.214H9.92l-.038.011A13.068,13.068,0,0,0,2.636,6.968C2.62,6.986,2.6,7,2.59,7.023c-.06.081-.12.164-.178.247-.1.136-.19.275-.28.414-.011.017-.02.034-.03.051A13.066,13.066,0,0,0,.014,15.441c0,.009,0,.018,0,.027.012.266.033.535.062.8,0,.017.005.033.008.05.03.267.067.534.113.8a13.079,13.079,0,0,0,3.688,7.093l.014.014,0,0a13.354,13.354,0,0,0,1.688,1.411,13.067,13.067,0,0,0,5.255,2.2,1.06,1.06,0,0,0,.374-2.086Z" transform="translate(0 -1.688)"/>
        <path id="Path_213" data-name="Path 213" d="M206.845,83.2a.858.858,0,0,0-.858.857V92.6l7.813,4.039a.857.857,0,0,0,.787-1.523l-6.886-3.56v-7.5A.857.857,0,0,0,206.845,83.2Z" transform="translate(-194.314 -78.579)"/>
      </g>
    </g>
  </g>
</svg>
