<svg xmlns="http://www.w3.org/2000/svg" width="20.119" height="20.119" viewBox="0 0 20.119 20.119">
  <path id="transparency" d="M20.119,7.354a7.354,7.354,0,0,0-14.5-1.735A7.354,7.354,0,1,0,14.5,14.5a7.367,7.367,0,0,0,5.619-7.147ZM7.354,18.94A6.175,6.175,0,0,1,5.426,6.9c-.009.151-.015.3-.015.455a7.362,7.362,0,0,0,7.354,7.354c.153,0,.3-.005.455-.014A6.186,6.186,0,0,1,7.354,18.94Zm6.175-6.175a6.216,6.216,0,0,1-.042.721A6.163,6.163,0,0,1,8.705,12h4.776A6.223,6.223,0,0,1,13.529,12.765ZM7.66,10.824A6.157,6.157,0,0,1,6.9,9.3h5.556a6.158,6.158,0,0,1,.756,1.527ZM6.638,8.117a6.182,6.182,0,0,1,0-1.485,6.163,6.163,0,0,1,4.782,1.485Zm8.056,5.1c.009-.151.014-.3.014-.455A7.362,7.362,0,0,0,7.354,5.411c-.153,0-.3.005-.455.015a6.175,6.175,0,1,1,7.794,7.794Z" transform="translate(0)"/>
</svg>
