<svg xmlns="http://www.w3.org/2000/svg" width="121.574" height="178.394" viewBox="0 0 121.574 178.394">
  <g id="trash-bin" transform="translate(0 0.001)">
    <path id="Path_2280" data-name="Path 2280" d="M237.983,59.747,217.27,55.459,228.107,3.123A3.92,3.92,0,0,1,232.739.081l13.041,2.7a3.917,3.917,0,0,1,3.042,4.63Zm0,0" transform="translate(-141.568 0)" fill="#3a6891"/>
    <path id="Path_2281" data-name="Path 2281" d="M271.77,9.35,260.932,61.685l-8.44-1.748L263.331,7.6a3.916,3.916,0,0,0-3.042-4.63l8.44,1.748A3.915,3.915,0,0,1,271.77,9.35Zm0,0" transform="translate(-164.518 -1.938)" fill="#255179"/>
    <path id="Path_2282" data-name="Path 2282" d="M143.957,110.792,122.315,89.15a3.918,3.918,0,0,1,0-5.541l21.642-21.642a3.917,3.917,0,0,1,5.539,0L171.14,83.609a3.918,3.918,0,0,1,0,5.541L149.5,110.792A3.917,3.917,0,0,1,143.957,110.792Zm0,0" transform="translate(-78.95 -39.63)" fill="#ffc26d"/>
    <path id="Path_2283" data-name="Path 2283" d="M129.715,125.033l-21.642-21.642a3.917,3.917,0,0,1,0-5.539L129.715,76.21a3.918,3.918,0,0,1,5.541,0L156.9,97.852a3.917,3.917,0,0,1,0,5.539l-21.642,21.642A3.916,3.916,0,0,1,129.715,125.033Zm0,0" transform="translate(-69.67 -48.91)" fill="#8eadc9"/>
    <path id="Path_2284" data-name="Path 2284" d="M204.482,89.148l-4.964,4.962a3.913,3.913,0,0,0,0-5.538l-21.64-21.645a3.913,3.913,0,0,0-5.538,0l4.958-4.962a3.919,3.919,0,0,1,5.539,0l21.645,21.643A3.914,3.914,0,0,1,204.482,89.148Zm0,0" transform="translate(-112.292 -39.629)" fill="#4074a3"/>
    <path id="Path_2285" data-name="Path 2285" d="M83.317,84.113H52.71a3.917,3.917,0,0,1-3.917-3.918V49.589a3.916,3.916,0,0,1,3.917-3.917H83.317a3.917,3.917,0,0,1,3.917,3.917V80.2A3.917,3.917,0,0,1,83.317,84.113Zm0,0" transform="translate(-31.792 -29.759)" fill="#9bbfe0"/>
    <path id="Path_2286" data-name="Path 2286" d="M136.164,49.589V80.194a3.918,3.918,0,0,1-3.918,3.918h-8.355a3.92,3.92,0,0,0,3.918-3.918V49.589a3.919,3.919,0,0,0-3.918-3.917h8.355A3.916,3.916,0,0,1,136.164,49.589Zm0,0" transform="translate(-80.724 -29.759)" fill="#6098cb"/>
    <path id="Path_2287" data-name="Path 2287" d="M126.709,138.441l-9.79,109.7-1.262,14.114a3.924,3.924,0,0,1-3.9,3.569H31.96a3.922,3.922,0,0,1-3.9-3.569L26.8,248.136l-9.79-109.7a3.92,3.92,0,0,1,3.9-4.265h101.9A3.92,3.92,0,0,1,126.709,138.441Zm0,0" transform="translate(-11.071 -87.426)" fill="#d9e5ed"/>
    <path id="Path_2288" data-name="Path 2288" d="M284.83,138.441l-9.79,109.7-1.262,14.114a3.925,3.925,0,0,1-3.9,3.569H259.664a3.924,3.924,0,0,0,3.9-3.569l1.262-14.114,9.79-109.694a3.921,3.921,0,0,0-3.9-4.267h10.209A3.92,3.92,0,0,1,284.83,138.441Zm0,0" transform="translate(-169.191 -87.426)" fill="#c6d4de"/>
    <path id="Path_2289" data-name="Path 2289" d="M135.256,461.25l-1.262,14.114a3.926,3.926,0,0,1-3.906,3.569H50.3a3.922,3.922,0,0,1-3.9-3.569L45.133,461.25Zm0,0" transform="translate(-29.407 -300.54)" fill="#c6d4de"/>
    <path id="Path_2290" data-name="Path 2290" d="M275.04,461.25l-1.262,14.114a3.925,3.925,0,0,1-3.9,3.569H259.664a3.924,3.924,0,0,0,3.9-3.569l1.262-14.114Zm0,0" transform="translate(-169.191 -300.54)" fill="#b6c5d1"/>
    <path id="Path_2291" data-name="Path 2291" d="M115.109,133.051H6.465a6.465,6.465,0,0,1,0-12.93H115.109a6.465,6.465,0,1,1,0,12.93Zm0,0" transform="translate(0 -78.269)" fill="#c6d4de"/>
    <g id="Group_2008" data-name="Group 2008" transform="translate(29.738 66.523)">
      <path id="Path_2292" data-name="Path 2292" d="M231.2,276.515c-.086,0-.173,0-.26-.012a2.692,2.692,0,0,1-2.423-2.937l6.835-71.392a2.692,2.692,0,0,1,5.36.513l-6.835,71.392A2.692,2.692,0,0,1,231.2,276.515Zm0,0" transform="translate(-178.626 -196.668)" fill="#cad7e1"/>
      <path id="Path_2293" data-name="Path 2293" d="M94.876,276.514a2.692,2.692,0,0,1-2.677-2.436l-6.835-71.392a2.692,2.692,0,0,1,5.36-.513l6.836,71.392a2.694,2.694,0,0,1-2.424,2.937C95.049,276.51,94.961,276.514,94.876,276.514Zm0,0" transform="translate(-85.351 -196.667)" fill="#cad7e1"/>
      <path id="Path_2294" data-name="Path 2294" d="M169.43,273.841a2.692,2.692,0,0,1-2.692-2.692V193.618a2.691,2.691,0,1,1,5.383,0v77.531A2.691,2.691,0,0,1,169.43,273.841Zm0,0" transform="translate(-138.381 -190.926)" fill="#cad7e1"/>
    </g>
    <path id="Path_2295" data-name="Path 2295" d="M333,76.466a2.706,2.706,0,0,1-2.708-2.692,2.678,2.678,0,0,1,2.674-2.692H333a2.692,2.692,0,1,1,0,5.384Zm0,0" transform="translate(-215.208 -46.316)" fill="#b6c5d1"/>
    <path id="Path_2296" data-name="Path 2296" d="M11.974,43.328a2.7,2.7,0,0,1-2.708-2.691,2.677,2.677,0,0,1,2.674-2.692h.034a2.691,2.691,0,1,1,0,5.383Zm0,0" transform="translate(-6.037 -24.725)" fill="#b6c5d1"/>
    <path id="Path_2297" data-name="Path 2297" d="M205.13,7.445a2.706,2.706,0,0,1-2.708-2.692A2.677,2.677,0,0,1,205.1,2.063h.033a2.691,2.691,0,1,1,0,5.383Zm0,0" transform="translate(-131.893 -1.344)" fill="#b6c5d1"/>
  </g>
</svg>
