<svg xmlns="http://www.w3.org/2000/svg" width="18.242" height="22.318" viewBox="0 0 18.242 22.318">
  <g id="delete_1_" data-name="delete (1)" transform="translate(0.264 0.251)">
    <path id="Path_195" data-name="Path 195" d="M222.909,154.7a.511.511,0,0,0-.511.511v9.657a.511.511,0,1,0,1.022,0v-9.657A.511.511,0,0,0,222.909,154.7Zm0,0" transform="translate(-211.038 -146.8)" stroke="#000" stroke-width="0.5"/>
    <path id="Path_196" data-name="Path 196" d="M104.909,154.7a.511.511,0,0,0-.511.511v9.657a.511.511,0,1,0,1.022,0v-9.657A.511.511,0,0,0,104.909,154.7Zm0,0" transform="translate(-99.067 -146.8)" stroke="#000" stroke-width="0.5"/>
    <path id="Path_197" data-name="Path 197" d="M1.448,6.494V19.083A2.819,2.819,0,0,0,2.2,21.027a2.516,2.516,0,0,0,1.826.789H13.69a2.516,2.516,0,0,0,1.826-.789,2.819,2.819,0,0,0,.749-1.944V6.494a1.952,1.952,0,0,0-.5-3.838H13.149V2.017A2.007,2.007,0,0,0,11.125,0H6.588A2.007,2.007,0,0,0,4.565,2.017v.639H1.949a1.952,1.952,0,0,0-.5,3.838Zm12.242,14.3H4.023A1.618,1.618,0,0,1,2.47,19.083V6.539H15.244V19.083A1.618,1.618,0,0,1,13.69,20.795ZM5.587,2.017a.984.984,0,0,1,1-1h4.537a.984.984,0,0,1,1,1v.639H5.587ZM1.949,3.678H15.765a.92.92,0,1,1,0,1.839H1.949a.92.92,0,1,1,0-1.839Zm0,0" transform="translate(0 0)" stroke="#000" stroke-width="0.5"/>
    <path id="Path_198" data-name="Path 198" d="M163.909,154.7a.511.511,0,0,0-.511.511v9.657a.511.511,0,1,0,1.022,0v-9.657A.511.511,0,0,0,163.909,154.7Zm0,0" transform="translate(-155.053 -146.8)" stroke="#000" stroke-width="0.5"/>
  </g>
</svg>
