<svg xmlns="http://www.w3.org/2000/svg" width="22.734" height="19.893" viewBox="0 0 22.734 19.893">
  <g id="undo" transform="translate(0 0)">
    <g id="Gruppe_138" data-name="Gruppe 138">
      <path id="Pfad_153" data-name="Pfad 153" d="M22.7,40.6a8.059,8.059,0,0,1-8.132,7.026H8.525v3.552a.71.71,0,0,1-1.154.556L.267,46.05a.712.712,0,0,1,0-1.111l7.1-5.684a.711.711,0,0,1,1.155.556v3.552h6.189a3.693,3.693,0,0,0,3.738-3.184,3.554,3.554,0,0,0-3.534-3.92H9.236a.711.711,0,0,1-.71-.71V32.707a.711.711,0,0,1,.71-.71h5.683A7.828,7.828,0,0,1,22.7,40.6Z" transform="translate(0 -31.996)"/>
    </g>
  </g>
</svg>
