<svg id="Group_472" data-name="Group 472" xmlns="http://www.w3.org/2000/svg" width="25" height="21.491" viewBox="0 0 25 21.491">
  <g id="Group_386" data-name="Group 386" transform="translate(7.235 8.045)">
    <g id="Group_386-2" data-name="Group 386" transform="translate(0 0)">
      <path id="Path_214" data-name="Path 214" d="M153.715,201.322l-5.289,5.289,1.382,1.382,2.931-2.931v9.706h1.954v-9.706l2.931,2.931L159,206.611Z" transform="translate(-148.426 -201.322)"/>
    </g>
  </g>
  <g id="Group_387" data-name="Group 387">
    <g id="Group_388" data-name="Group 388" transform="translate(0 0)">
      <path id="Path_215" data-name="Path 215" d="M20.319,43.6A7.9,7.9,0,0,0,4.689,42.25,5.943,5.943,0,0,0,5.945,54H6.969V52.053H5.94a3.994,3.994,0,0,1-.319-7.976l.809-.065.083-.807a5.946,5.946,0,0,1,11.859.615v1.7h1.413a3.264,3.264,0,1,1,0,6.527H18.08V54h1.706a5.212,5.212,0,0,0,.533-10.4Z" transform="translate(0 -35.93)"/>
    </g>
  </g>
</svg>
